HIERARCHY
ROOT Hips
{
	OFFSET 0.000000 0.000000 0.000000
	CHANNELS 6 Xposition Yposition Zposition Zrotation Yrotation Xrotation 
	JOINT LHipJoint
	{
		OFFSET 0.000000 0.000000 0.000000
		CHANNELS 3 Zrotation Yrotation Xrotation
		JOINT LeftUpLeg
		{
			OFFSET 1.363060 -1.794630 0.839290
			CHANNELS 3 Zrotation Yrotation Xrotation
			JOINT LeftLeg
			{
				OFFSET 2.448110 -6.726130 0.000000
				CHANNELS 3 Zrotation Yrotation Xrotation
				JOINT LeftFoot
				{
					OFFSET 2.562200 -7.039590 0.000000
					CHANNELS 3 Zrotation Yrotation Xrotation
					JOINT LeftToeBase
					{
						OFFSET 0.157640 -0.433110 2.322550
						CHANNELS 3 Zrotation Yrotation Xrotation
						End Site
						{
							OFFSET 0.000000 0.000000 0.000000
						}
					}
				}
			}
		}
	}
	JOINT RHipJoint
	{
		OFFSET 0.000000 0.000000 0.000000
		CHANNELS 3 Zrotation Yrotation Xrotation
		JOINT RightUpLeg
		{
			OFFSET -1.305520 -1.794630 0.839290
			CHANNELS 3 Zrotation Yrotation Xrotation
			JOINT RightLeg
			{
				OFFSET -2.542530 -6.985550 0.000000
				CHANNELS 3 Zrotation Yrotation Xrotation
				JOINT RightFoot
				{
					OFFSET -2.568260 -7.056230 0.000000
					CHANNELS 3 Zrotation Yrotation Xrotation
					JOINT RightToeBase
					{
						OFFSET -0.164730 -0.452590 2.363150
						CHANNELS 3 Zrotation Yrotation Xrotation
						End Site
						{
							OFFSET 0.000000 0.000000 0.000000
						}
					}
				}
			}
		}
	}
}
MOTION
Frames: 19
Frame Time: 0.008333
0.692154 17.746359 -0.986630 112.876002 87.873508 114.039077 -10.435950 4.602236 -0.752850 -0.047752 18.454149 0.203556 -0.552214 1.647325 22.553305 1.352213 6.567517 21.041574 2.487700 -0.000001 -69.609000 10.473758 0.246440 1.628957 11.082859 -10.554410 -22.881247 1.747522 2.039204 -4.713641 -3.618456 -18.721797 -1.103032 -3.905700 -0.000000 -42.506700
0.933803 17.808424 -0.888973 115.438011 87.608935 116.259534 -10.323115 4.714518 -0.731980 0.446503 18.673417 0.204484 -0.466541 1.724147 23.556802 1.467642 6.213495 23.703566 2.462200 0.000000 -66.509300 10.680614 0.253888 1.635190 11.062876 -10.597590 -21.859656 1.691842 2.097485 -5.551145 -3.571658 -18.792554 -0.699302 -4.040900 -0.000000 -41.397200
1.173215 17.861582 -0.792652 116.375581 87.355456 116.870202 -10.215130 4.783349 -0.739843 0.909244 18.997609 0.085119 -0.392872 1.779197 24.725326 1.586807 6.153032 25.704914 2.521101 -0.000000 -62.699200 10.859621 0.239567 1.654849 11.057990 -10.547852 -20.976525 1.627289 2.111572 -5.951577 -3.565258 -18.938862 -0.495699 -4.126900 0.000000 -40.216900
1.409812 17.904844 -0.697681 116.015224 87.120610 116.191153 -10.105784 4.811994 -0.784322 1.337930 19.424029 -0.128154 -0.326235 1.821306 26.044958 1.703683 6.475333 27.006312 2.740800 0.000001 -58.628700 11.017242 0.207003 1.683452 11.071099 -10.409078 -20.205113 1.549392 2.085523 -5.962115 -3.603424 -19.193260 -0.469603 -4.177700 -0.000000 -38.951501
1.643151 17.937288 -0.604051 114.581834 86.903458 114.442017 -9.993882 4.803147 -0.870140 1.732692 19.946289 -0.416685 -0.261528 1.857734 27.506799 1.816034 7.218597 27.606244 3.155800 0.000001 -54.671000 11.157095 0.158581 1.715615 11.107449 -10.195379 -19.514674 1.455554 2.024920 -5.654092 -3.687317 -19.587072 -0.571538 -4.215800 -0.000000 -37.629500
1.872989 17.958040 -0.511609 112.234445 86.691124 111.777101 -9.879446 4.760546 -0.996773 2.087625 20.550978 -0.767457 -0.195404 1.893329 29.102985 1.924240 8.367535 27.527942 3.751400 -0.000000 -51.039499 11.282063 0.097245 1.740089 11.174554 -9.959493 -18.894811 1.348610 1.933926 -5.075120 -3.809293 -20.100675 -0.770905 -4.244099 0.000000 -36.223300
2.099000 17.966329 -0.420164 109.149284 86.466067 108.363768 -9.763967 4.687135 -1.163268 2.397446 21.212112 -1.153222 -0.126141 1.930905 30.806914 2.032268 9.869317 26.840242 4.476900 -0.000000 -47.887401 11.395878 0.027035 1.744285 11.267522 -9.747476 -18.307059 1.230281 1.819399 -4.311518 -3.960776 -20.723173 -1.017560 -4.274400 0.000000 -34.731000
2.321144 17.961476 -0.329678 105.526132 86.214880 104.401111 -9.651794 4.585973 -1.366542 2.665955 21.915038 -1.566172 -0.054784 1.971493 32.599292 2.143726 11.626147 25.623595 5.247301 0.000000 -45.316300 11.499512 -0.049267 1.722412 11.384982 -9.587712 -17.719934 1.103690 1.690583 -3.456948 -4.134057 -21.446008 -1.266485 -4.319500 0.000000 -33.125000
2.539795 17.942886 -0.239838 101.538575 85.912995 100.070729 -9.541954 4.467418 -1.592788 2.872556 22.649415 -2.026384 0.014183 2.014843 34.469267 2.259087 13.518241 23.942750 5.962400 0.000000 -42.982600 11.595607 -0.125665 1.662888 11.526100 -9.575815 -17.203885 0.983245 1.547780 -2.444853 -4.306449 -22.122965 -1.611844 -4.307300 0.000000 -31.113601
2.754926 17.910372 -0.151116 97.442081 85.571670 95.629499 -9.444324 4.329884 -1.844794 3.055042 23.405968 -2.515575 0.078815 2.060850 36.376537 2.381663 15.432073 21.940506 6.544900 -0.000000 -41.061700 11.680724 -0.202044 1.577620 11.681518 -9.629021 -16.652767 0.863592 1.408691 -1.476916 -4.486238 -22.849516 -1.960928 -4.294299 0.000000 -28.781500
2.967128 17.863796 -0.063508 93.377087 85.182096 91.234140 -9.357991 4.183267 -2.107001 3.201201 24.178062 -3.063150 0.134858 2.108130 38.303154 2.508918 17.267061 19.715928 6.935800 0.000000 -39.319199 11.754702 -0.273492 1.464867 11.850459 -9.797886 -16.152768 0.758970 1.271782 -0.451409 -4.655781 -23.482655 -2.453602 -4.189100 0.000000 -25.811299
3.176805 17.803379 0.022553 89.461092 84.757056 87.014504 -9.288002 4.029914 -2.372422 3.330332 24.961030 -3.681225 0.180729 2.155452 40.221325 2.637649 18.945093 17.394859 7.113800 0.000000 -37.783200 11.812166 -0.339274 1.335045 12.034376 -10.040609 -15.711306 0.674195 1.141675 0.622133 -4.813830 -23.999335 -3.143171 -3.961099 -0.000000 -22.121000
3.384387 17.729836 0.106104 85.726165 84.326154 83.012700 -9.245672 3.866166 -2.640054 3.488015 25.758821 -4.374038 0.216117 2.202309 42.109832 2.760872 20.395542 15.072961 7.075601 -0.000000 -36.346200 11.839908 -0.403476 1.205097 12.250011 -10.264880 -15.294209 0.609513 1.025228 1.679716 -4.969163 -24.446244 -4.026820 -3.619100 0.000000 -17.823700
3.590307 17.643906 0.186546 82.145875 83.897176 79.213360 -9.233445 3.695002 -2.897465 3.673640 26.559246 -5.157502 0.241049 2.247186 43.948226 2.872834 21.595044 12.840487 6.856700 0.000000 -35.080200 11.830428 -0.465489 1.075361 12.506676 -10.483422 -14.987003 0.576580 0.913398 2.866936 -5.111513 -24.721975 -5.224339 -3.088700 0.000000 -12.900199
3.794999 17.546849 0.262909 78.649146 83.489167 75.552039 -9.260063 3.513052 -3.140523 3.910343 27.354377 -6.032384 0.255797 2.290119 45.720588 2.966934 22.523675 10.744921 6.492400 0.000001 -33.907300 11.770766 -0.529648 0.953075 12.821050 -10.649799 -14.801263 0.578394 0.802639 4.216055 -5.243080 -24.836084 -6.736342 -2.375999 -0.000000 -7.650600
3.998660 17.440008 0.334369 75.155556 83.104731 71.949959 -9.329173 3.320518 -3.361647 4.195453 28.125902 -6.995972 0.260495 2.331698 47.411758 3.039586 23.190161 8.816853 6.028400 0.000000 -32.850900 11.653366 -0.597649 0.834442 13.198318 -10.772916 -14.792699 0.621635 0.681044 5.849259 -5.357038 -24.743155 -8.597779 -1.468900 0.000000 -2.320800
4.201397 17.325031 0.399978 71.562789 82.744139 68.299954 -9.447219 3.116079 -3.557324 4.535585 28.856323 -8.032491 0.254712 2.374247 49.011072 3.088461 23.606203 7.048409 5.497000 -0.000000 -31.828500 11.469944 -0.673887 0.713776 13.645603 -10.857246 -14.976543 0.709017 0.538864 7.828487 -5.448683 -24.439175 -10.776870 179.596900 0.000000 -2.752200
4.403252 17.203548 0.459346 67.821748 82.387004 64.549625 -9.611034 2.905652 -3.719838 4.899731 29.514263 -9.132064 0.237600 2.421016 50.509789 3.115278 23.808977 5.422732 4.930300 -0.000001 -30.847100 11.225998 -0.758678 0.580745 14.144802 -10.944889 -15.397588 0.841596 0.361881 10.257124 -5.507299 -23.893396 -13.249127 -179.219600 0.000001 -7.294200
4.603824 17.077120 0.513114 63.922391 81.992716 60.701921 -9.805614 2.700333 -3.843955 5.217223 30.068802 -10.311020 0.206857 2.476222 51.912416 3.123156 23.839720 3.887732 4.341400 0.000000 -29.760600 10.942396 -0.844545 0.441673 14.650206 -11.007146 -16.110569 1.008988 0.137623 13.236078 -5.538386 -23.137702 -16.030562 -177.952700 0.000001 -11.492800
